<?xml version="1.0" encoding="UTF-8"?>
<svg width="39px" height="38px" viewBox="0 0 39 38" version="1.1" xmlns="http://www.w3.org/2000/svg" xmlns:xlink="http://www.w3.org/1999/xlink">
    <!-- Generator: Sketch 60 (88103) - https://sketch.com -->
    <title>编组 9</title>
    <desc>Created with Sketch.</desc>
    <defs>
        <linearGradient x1="5.83469443%" y1="84.0916695%" x2="94.1070966%" y2="13.8851091%" id="linearGradient-1">
            <stop stop-color="#52A3FF" offset="0%"></stop>
            <stop stop-color="#4A2AFF" offset="99.7519003%"></stop>
        </linearGradient>
        <linearGradient x1="50%" y1="0%" x2="50%" y2="100%" id="linearGradient-2">
            <stop stop-color="#568AE4" offset="0.155722128%"></stop>
            <stop stop-color="#568AE4" stop-opacity="0" offset="100%"></stop>
        </linearGradient>
    </defs>
    <g id="页面-1" stroke="none" stroke-width="1" fill="none" fill-rule="evenodd">
        <g id="首页" transform="translate(-1380.000000, -1152.000000)">
            <g id="Panel-1" transform="translate(560.000000, 800.000000)">
                <g id="编组-11" transform="translate(820.000000, 351.000000)">
                    <g id="编组-9">
                        <rect id="矩形" x="0" y="0" width="40" height="40"></rect>
                        <path d="M34.3478261,1.60869565 C36.5809775,1.60869565 38.3913043,3.41902253 38.3913043,5.65217391 C38.3913043,7.88532529 36.5809775,9.69565217 34.3478261,9.69565217 C33.5941953,9.69565217 32.8887195,9.48947625 32.2847266,9.13045239 L29.5711651,11.8431798 C34.8139137,17.6371493 36.4999837,24.7703375 32.973717,28.2966042 C31.790289,29.4800322 30.2006143,30.0763957 28.3916517,30.1482769 C28.3645621,31.9125118 27.8176913,33.4526299 26.6848187,34.5855025 C23.3090013,37.9613199 16.3169863,36.1336478 10.5375948,30.8766827 L8.54697085,32.8686203 C8.72713818,33.326758 8.82608696,33.8257367 8.82608696,34.3478261 C8.82608696,36.5809775 7.01576008,38.3913043 4.7826087,38.3913043 C2.54945732,38.3913043 0.739130435,36.5809775 0.739130435,34.3478261 C0.739130435,32.1146747 2.54945732,30.3043478 4.7826087,30.3043478 C5.76034164,30.3043478 6.65702248,30.6513732 7.35620107,31.2289737 L9.10776237,29.4782479 C3.53067069,23.6162258 1.5156581,16.3444555 4.97971486,12.8803987 C6.11258745,11.7475261 7.65270564,11.2006553 9.4175759,11.1727349 C9.48882173,9.36460313 10.0851852,7.77492836 11.2686132,6.59150042 C14.8870519,2.9730617 22.3034367,4.84300819 28.1735444,10.4124284 L30.8695476,7.71527342 C30.5105237,7.11128054 30.3043478,6.40580471 30.3043478,5.65217391 C30.3043478,3.41902253 32.1146747,1.60869565 34.3478261,1.60869565 Z M4.7826087,32.3043478 C3.65402682,32.3043478 2.73913043,33.2192442 2.73913043,34.3478261 C2.73913043,35.476408 3.65402682,36.3913043 4.7826087,36.3913043 C5.91119058,36.3913043 6.82608696,35.476408 6.82608696,34.3478261 C6.82608696,33.2192442 5.91119058,32.3043478 4.7826087,32.3043478 Z M16.5202926,24.8940523 L11.9548639,29.4617614 C17.022394,34.0339176 22.8718806,35.5700135 25.2706051,33.171289 C26.0053979,32.4364962 26.3709632,31.3778981 26.3931356,30.1171617 L26.393445,30.0297706 C23.239022,29.5550217 19.6804576,27.7535688 16.5202926,24.8940523 Z M28.1556003,13.2599954 L22.9769068,18.4392768 C25.8304115,21.5766685 27.6733383,25.0713154 28.2218758,28.1507691 C29.5857531,28.1118992 30.7440785,27.6978156 31.5595034,26.8823907 C34.1283967,24.3134974 32.7140361,18.3413654 28.1556003,13.2599954 Z M9.53544677,13.1717724 L9.44805572,13.1720818 C8.18731929,13.1942542 7.12872119,13.5598195 6.39392843,14.2946123 C3.92335325,16.7651875 5.62685374,22.8963471 10.5224629,28.0635088 L15.0893455,23.4962254 C11.9872779,20.2266093 10.032937,16.4772974 9.53544677,13.1717724 Z M21.5601755,19.854548 L17.9371081,23.4784876 C20.6351321,25.8988524 23.5842821,27.4328311 26.1417858,27.9548066 C25.5597988,25.4559807 23.9878961,22.5450123 21.5601755,19.854548 Z M11.6102901,13.4236225 L11.6652035,13.6770711 C12.2674247,16.3202186 13.9253493,19.3514516 16.5043122,22.0817015 L20.162825,18.4231468 C17.3489074,15.7571105 14.2491027,14.0377392 11.6102901,13.4236225 Z M12.6828267,8.00571398 C11.8674018,8.82113887 11.4533182,9.97946433 11.4137367,11.3433571 C14.6425081,11.91835 18.3268003,13.9156896 21.577564,17.0084462 L26.7588142,11.8271995 C21.5842675,6.9393816 15.3285806,5.35996012 12.6828267,8.00571398 Z M34.3478261,3.60869565 C33.2192442,3.60869565 32.3043478,4.52359203 32.3043478,5.65217391 C32.3043478,6.78075579 33.2192442,7.69565217 34.3478261,7.69565217 C35.476408,7.69565217 36.3913043,6.78075579 36.3913043,5.65217391 C36.3913043,4.52359203 35.476408,3.60869565 34.3478261,3.60869565 Z" id="形状结合" fill="url(#linearGradient-1)"></path>
                        <circle id="椭圆形" fill="url(#linearGradient-2)" cx="19.5652174" cy="20.4347826" r="8.26086957"></circle>
                    </g>
                </g>
            </g>
        </g>
    </g>
</svg>