<?xml version="1.0" encoding="UTF-8"?>
<svg width="39px" height="36px" viewBox="0 0 39 36" version="1.1" xmlns="http://www.w3.org/2000/svg" xmlns:xlink="http://www.w3.org/1999/xlink">
    <!-- Generator: Sketch 60 (88103) - https://sketch.com -->
    <title>编组 7备份</title>
    <desc>Created with Sketch.</desc>
    <defs>
        <linearGradient x1="50%" y1="0%" x2="50%" y2="100%" id="linearGradient-1">
            <stop stop-color="#2A7AFF" offset="0%"></stop>
            <stop stop-color="#2A7AFF" stop-opacity="0" offset="100%"></stop>
        </linearGradient>
        <linearGradient x1="5.83469443%" y1="66.1472757%" x2="94.1070966%" y2="32.89444%" id="linearGradient-2">
            <stop stop-color="#52A3FF" offset="0%"></stop>
            <stop stop-color="#4A2AFF" offset="99.7519003%"></stop>
        </linearGradient>
    </defs>
    <g id="页面-1" stroke="none" stroke-width="1" fill="none" fill-rule="evenodd">
        <g id="首页" transform="translate(-661.000000, -1153.000000)">
            <g id="Panel-1" transform="translate(560.000000, 800.000000)">
                <g id="编组-28" transform="translate(100.000000, 351.000000)">
                    <g id="编组-7备份">
                        <rect id="矩形" x="0" y="0" width="40" height="40"></rect>
                        <polygon id="路径-3" fill="url(#linearGradient-1)" points="1.73913043 30.4647676 8.69565217 27.826087 14.7826087 29.5652174 18.2608696 24.3478261 25.2173913 24.3478261 28.6956522 19.1304348 34.7826087 19.1304348 40 12.173913 39.1304348 38.2608696 1.73913043 38.2608696"></polygon>
                        <path d="M34.3478261,2.72826087 C36.4429063,2.72826087 38.1413043,4.42665894 38.1413043,6.52173913 C38.1413043,8.61681932 36.4429063,10.3152174 34.3478261,10.3152174 C33.5402008,10.3152174 32.7915224,10.0628356 32.1763575,9.63263858 L28.4627177,11.6845208 C28.5367688,11.9803391 28.576087,12.2899258 28.576087,12.6086957 C28.576087,14.7037758 26.8776889,16.4021739 24.7826087,16.4021739 C23.7055815,16.4021739 22.7333866,15.953334 22.0428694,15.2324997 L18.1177347,17.4008318 C18.1333076,17.5404354 18.1413043,17.6823273 18.1413043,17.826087 C18.1413043,19.9211671 16.4429063,21.6195652 14.3478261,21.6195652 C13.452747,21.6195652 12.6300722,21.3095657 11.9813093,20.7910743 L8.40110441,22.7708178 C8.51478395,23.1312906 8.57608696,23.515008 8.57608696,23.9130435 C8.57608696,26.0081237 6.87768889,27.7065217 4.7826087,27.7065217 C2.6875285,27.7065217 0.989130435,26.0081237 0.989130435,23.9130435 C0.989130435,21.8179633 2.6875285,20.1195652 4.7826087,20.1195652 C5.75471452,20.1195652 6.64141827,20.485215 7.31268655,21.0864811 L10.7957925,19.1607529 C10.6397193,18.7455838 10.5543478,18.2958052 10.5543478,17.826087 C10.5543478,15.7310068 12.2527459,14.0326087 14.3478261,14.0326087 C15.5795041,14.0326087 16.6740826,14.6196012 17.3670738,15.5290983 L21.0881204,13.4733808 C21.0233691,13.1956332 20.9891304,12.9061629 20.9891304,12.6086957 C20.9891304,10.5136155 22.6875285,8.81521739 24.7826087,8.81521739 C25.8381453,8.81521739 26.7929915,9.24632409 27.4806781,9.94206818 L30.8804626,8.06285792 C30.6708479,7.59195203 30.5543478,7.07045061 30.5543478,6.52173913 C30.5543478,4.42665894 32.2527459,2.72826087 34.3478261,2.72826087 Z M4.7826087,21.6195652 C3.51595563,21.6195652 2.48913043,22.6463904 2.48913043,23.9130435 C2.48913043,25.1796965 3.51595563,26.2065217 4.7826087,26.2065217 C6.04926176,26.2065217 7.07608696,25.1796965 7.07608696,23.9130435 C7.07608696,22.6463904 6.04926176,21.6195652 4.7826087,21.6195652 Z M14.3478261,15.5326087 C13.081173,15.5326087 12.0543478,16.5594339 12.0543478,17.826087 C12.0543478,19.09274 13.081173,20.1195652 14.3478261,20.1195652 C15.6144792,20.1195652 16.6413043,19.09274 16.6413043,17.826087 C16.6413043,16.5594339 15.6144792,15.5326087 14.3478261,15.5326087 Z M24.7826087,10.3152174 C23.5159556,10.3152174 22.4891304,11.3420426 22.4891304,12.6086957 C22.4891304,13.8753487 23.5159556,14.9021739 24.7826087,14.9021739 C26.0492618,14.9021739 27.076087,13.8753487 27.076087,12.6086957 C27.076087,11.3420426 26.0492618,10.3152174 24.7826087,10.3152174 Z M34.3478261,4.22826087 C33.081173,4.22826087 32.0543478,5.25508606 32.0543478,6.52173913 C32.0543478,7.7883922 33.081173,8.81521739 34.3478261,8.81521739 C35.6144792,8.81521739 36.6413043,7.7883922 36.6413043,6.52173913 C36.6413043,5.25508606 35.6144792,4.22826087 34.3478261,4.22826087 Z" id="形状结合" fill="url(#linearGradient-2)"></path>
                    </g>
                </g>
            </g>
        </g>
    </g>
</svg>