<?xml version="1.0" encoding="UTF-8"?>
<svg width="38px" height="38px" viewBox="0 0 38 38" version="1.1" xmlns="http://www.w3.org/2000/svg" xmlns:xlink="http://www.w3.org/1999/xlink">
    <!-- Generator: Sketch 60 (88103) - https://sketch.com -->
    <title>编组 2</title>
    <desc>Created with Sketch.</desc>
    <defs>
        <linearGradient x1="50%" y1="0%" x2="50%" y2="100%" id="linearGradient-1">
            <stop stop-color="#568AE4" offset="0.155722128%"></stop>
            <stop stop-color="#568AE4" stop-opacity="0" offset="100%"></stop>
        </linearGradient>
        <linearGradient x1="5.83469443%" y1="84.0265976%" x2="94.1070966%" y2="13.9540429%" id="linearGradient-2">
            <stop stop-color="#52A3FF" offset="0%"></stop>
            <stop stop-color="#4A2AFF" offset="99.7519003%"></stop>
        </linearGradient>
    </defs>
    <g id="页面-1" stroke="none" stroke-width="1" fill="none" fill-rule="evenodd">
        <g id="首页" transform="translate(-661.000000, -1047.000000)">
            <g id="Panel-1" transform="translate(560.000000, 800.000000)">
                <g id="编组-29" transform="translate(100.000000, 246.000000)">
                    <g id="编组-2">
                        <rect id="矩形" x="0" y="0" width="40" height="40"></rect>
                        <path d="M16.0578771,5.72903118 C16.3834955,7.63567311 18.0440042,9.08695652 20.0434783,9.08695652 C22.0320263,9.08695652 23.6853033,7.6514908 24.023622,5.76024665 C28.1081973,7.36492158 31,11.3447524 31,16 C31,22.0751322 26.0751322,27 20,27 C13.9248678,27 9,22.0751322 9,16 C9,11.3713278 11.8588801,7.41038286 15.9071906,5.78661498 Z" id="形状结合" fill="url(#linearGradient-1)"></path>
                        <path d="M20.0434783,1 C22.1640709,1 23.9033886,2.63243231 24.0733367,4.70920235 C28.4182774,6.27678242 31.5985213,10.2811464 31.9647043,15.0727172 C36.114923,16.960666 39,21.1434101 39,26 C39,28.1378481 38.4409531,30.1451237 37.4610752,31.8836113 C37.8578692,32.5081811 38.0869565,33.2490766 38.0869565,34.0434783 C38.0869565,36.2766296 36.2766296,38.0869565 34.0434783,38.0869565 C33.0573447,38.0869565 32.1536621,37.7339424 31.4519079,37.1473917 C30.0763156,37.6971396 28.5735262,38 27,38 C24.3877078,38 21.9703736,37.1652853 20.0001668,35.7480253 C18.0304397,37.1650044 15.6127317,38 13,38 C10.8807434,38 8.88979809,37.4506342 7.16180511,36.4865437 C6.54660556,36.8677007 5.82064689,37.0869565 5.04347826,37.0869565 C2.81032688,37.0869565 1,35.2766296 1,33.0434783 C1,32.0900136 1.33001209,31.2136274 1.88204391,30.5223121 C1.3132539,29.1274325 1,27.6002984 1,26 C1,21.1434101 3.885077,16.960666 8.03483455,15.0721642 C8.4038897,10.2481416 11.6254819,6.221832 16.0162359,4.67708973 C16.2014286,2.61572166 17.9337674,1 20.0434783,1 Z M34.0434783,32 C32.9148964,32 32,32.9148964 32,34.0434783 C32,35.1720601 32.9148964,36.0869565 34.0434783,36.0869565 C35.1720601,36.0869565 36.0869565,35.1720601 36.0869565,34.0434783 C36.0869565,32.9148964 35.1720601,32 34.0434783,32 Z M31.929879,17.2976369 L31.906503,17.5052545 C31.3803655,21.7094439 28.6793186,25.237572 24.9651654,26.9278358 C24.743,29.8283228 23.4897581,32.4408 21.5710399,34.3986528 C23.1340331,35.4118908 24.9983364,36 27,36 C28.1398946,36 29.2352433,35.8092761 30.2558754,35.4579988 C30.0898535,35.0175239 30,34.5409943 30,34.0434783 C30,31.8103269 31.8103269,30 34.0434783,30 C34.7311976,30 35.3788167,30.1716893 35.9458116,30.4745437 C36.6199391,29.129474 37,27.609121 37,26 C37,22.2697171 34.9575129,19.0164827 31.929879,17.2976369 Z M8.06944141,17.2985217 L7.87768923,17.4097388 C4.95626227,19.1555179 3,22.3493042 3,26 C3,27.1507089 3.19435993,28.2560226 3.55204236,29.2849037 C4.01374033,29.1006758 4.51685225,29 5.04347826,29 C7.27662964,29 9.08695652,30.8103269 9.08695652,33.0434783 C9.08695652,33.7442426 8.90869209,34.4033711 8.59503735,34.9779896 C9.92200715,35.6326933 11.418109,36 13,36 C15.0016636,36 16.8659669,35.4118908 18.4295435,34.3990389 C16.5102419,32.4408 15.257,29.8283228 15.0352957,26.9272828 C11.2599608,25.2099388 8.53158946,21.5935939 8.06944141,17.2985217 Z M5.04347826,31 C3.91489638,31 3,31.9148964 3,33.0434783 C3,34.1720601 3.91489638,35.0869565 5.04347826,35.0869565 C6.17206014,35.0869565 7.08695652,34.1720601 7.08695652,33.0434783 C7.08695652,31.9148964 6.17206014,31 5.04347826,31 Z M22.8635337,27.6559151 L22.6698249,27.7019277 C21.8112275,27.896999 20.9176424,28 20,28 C19.0129531,28 18.0537401,27.8808291 17.1359641,27.6560906 C17.4918489,29.7884973 18.5221067,31.6927478 20.0002978,33.1417247 C21.4778933,31.6927478 22.5081511,29.7884973 22.8635337,27.6559151 Z M20.0007123,18.8592655 L19.8375134,19.0215409 C18.1803278,20.7221517 17.1236854,23.0107889 17.010173,25.5448655 C17.9549436,25.840901 18.958892,26 20,26 C21.041108,26 22.0450564,25.840901 22.9888586,25.5456898 C22.8726633,22.9292745 21.7507176,20.5751671 20.0007123,18.8592655 Z M13,16 C11.958892,16 10.9549436,16.159099 10.0111414,16.4543102 C10.1686839,19.9937702 12.1662886,23.0538018 15.070121,24.7023631 C15.3656035,21.9490327 16.5924431,19.4753223 18.4289601,17.6013472 C16.8659669,16.5881092 15.0016636,16 13,16 Z M27,16 C24.9983364,16 23.1340331,16.5881092 21.5704565,17.6009611 C23.4075569,19.4753223 24.6343965,21.9490327 24.9305586,24.7014783 C27.8337114,23.0538018 29.8313161,19.9937702 29.989827,16.4551345 C29.0450564,16.159099 28.041108,16 27,16 Z M16.3487153,6.68864926 L16.1663023,6.76118317 C13.0367239,8.06097812 10.7094429,10.9057632 10.1364663,14.3440849 C11.0537401,14.1191709 12.0129531,14 13,14 C15.6127317,14 18.0304397,14.8349956 20.0008275,16.2526901 C21.9703736,14.8347147 24.3877078,14 27,14 C27.9870469,14 28.9462599,14.1191709 29.8640359,14.3439094 C29.2841446,10.8664357 26.9099068,7.99604313 23.7252196,6.71689716 C23.0887171,8.11524115 21.6795758,9.08695652 20.0434783,9.08695652 C18.3961666,9.08695652 16.9789331,8.10187489 16.3487153,6.68864926 Z M20.0434783,3 C18.9148964,3 18,3.91489638 18,5.04347826 C18,6.17206014 18.9148964,7.08695652 20.0434783,7.08695652 C21.1720601,7.08695652 22.0869565,6.17206014 22.0869565,5.04347826 C22.0869565,3.91489638 21.1720601,3 20.0434783,3 Z" id="形状结合" fill="url(#linearGradient-2)"></path>
                    </g>
                </g>
            </g>
        </g>
    </g>
</svg>