<?xml version="1.0" encoding="UTF-8"?>
<svg width="38px" height="36px" viewBox="0 0 38 36" version="1.1" xmlns="http://www.w3.org/2000/svg" xmlns:xlink="http://www.w3.org/1999/xlink">
    <!-- Generator: Sketch 60 (88103) - https://sketch.com -->
    <title>编组 32</title>
    <desc>Created with Sketch.</desc>
    <defs>
        <linearGradient x1="5.83469443%" y1="82.0613006%" x2="94.1070966%" y2="16.0359733%" id="linearGradient-1">
            <stop stop-color="#52A3FF" offset="0%"></stop>
            <stop stop-color="#4A2AFF" offset="99.7519003%"></stop>
        </linearGradient>
        <linearGradient x1="50%" y1="0.155722128%" x2="50%" y2="100%" id="linearGradient-2">
            <stop stop-color="#568AE4" stop-opacity="0" offset="0%"></stop>
            <stop stop-color="#568AE4" offset="100%"></stop>
        </linearGradient>
    </defs>
    <g id="页面-1" stroke="none" stroke-width="1" fill="none" fill-rule="evenodd">
        <g id="首页" transform="translate(-1383.000000, -1047.000000)">
            <g id="Panel-1" transform="translate(560.000000, 800.000000)">
                <g id="编组-20" transform="translate(822.000000, 246.000000)">
                    <g id="编组-32">
                        <rect id="矩形" x="0" y="-1.59872116e-13" width="40" height="39.1489362"></rect>
                        <path d="M33.4,30 L39,37 L1,37 L6.6,30 L9.161,30 L5.16124969,35 L34.8387503,35 L30.838,30 L33.4,30 Z M20.06,1 C21.9929966,1 23.56,2.56700338 23.56,4.5 C23.56,6.10716954 22.4767439,7.46133107 21.0005328,7.87218366 L21,11.9993219 L25.5642918,11.9988383 C25.5982426,11.1573574 25.7327655,10.4163109 25.99602,9.79124005 L26.1055728,9.5527864 C26.6373123,8.4893075 27.6184395,7.63623249 29.0317371,6.96855424 C29.0106492,6.8162147 29,6.65935098 29,6.5 C29,4.56700338 30.5670034,3 32.5,3 C34.4329966,3 36,4.56700338 36,6.5 C36,8.43299662 34.4329966,10 32.5,10 C31.4441417,10 30.4974834,9.53245978 29.8557606,8.79311512 C28.8524224,9.26976112 28.203628,9.82881196 27.8944272,10.4472136 C27.7109815,10.8141049 27.600487,11.3451561 27.5666874,11.9980391 L31,12 L39,22 L1,22 L9,12 L12.6459907,11.9980391 C12.6121911,11.3451561 12.5016966,10.8141049 12.3182509,10.4472136 C11.9227976,9.65630693 10.971864,8.9624816 9.43528634,8.40954791 C8.80906934,9.36712576 7.72844252,10 6.5,10 C4.56700338,10 3,8.43299662 3,6.5 C3,4.56700338 4.56700338,3 6.5,3 C8.42899041,3 9.99350308,4.56051476 9.99997982,6.4879861 C12.0582665,7.21019862 13.4382262,8.21502814 14.1071053,9.5527864 C14.4431394,10.2248545 14.6100107,11.0476865 14.6483864,11.9988383 L19,11.9993219 L19.0003,7.83670698 C17.5853243,7.38773049 16.56,6.0636039 16.56,4.5 C16.56,2.56700338 18.1270034,1 20.06,1 Z M27.6586996,13.9989655 C27.6883128,14.2393448 27.7237245,14.4818068 27.7641717,14.7244899 C27.7948272,14.9084227 27.8269167,15.0834631 27.8594201,15.2474634 L27.908358,15.4849154 L27.954744,15.6929093 L28.2126781,16.7276069 L26.2723931,17.2126781 L26.0298575,16.2425356 L25.8977816,15.6373102 C25.8613549,15.4535739 25.8255432,15.258244 25.7913839,15.0532879 C25.7327632,14.7015641 25.683441,14.3494754 25.6453044,14.0000845 L21,13.9993219 L21,17 L19,17 L19,13.9993219 L14.5673738,14.0000845 C14.5292371,14.3494754 14.4799149,14.7015641 14.4212943,15.0532879 C14.3871349,15.258244 14.3513232,15.4535739 14.3148966,15.6373102 L14.2316536,16.0332477 L14.1828206,16.2425356 L13.940285,17.2126781 L12,16.7276069 L12.2579341,15.6929093 L12.3043202,15.4849154 C12.3533133,15.2562805 12.4025232,15.0003891 12.4485064,14.7244899 C12.4889536,14.4818068 12.5243653,14.2393448 12.5539785,13.9989655 L9.96124969,14 L5.16124969,20 L34.8387503,20 L30.0387503,14 L27.6586996,13.9989655 Z M32.5,5 C31.6715729,5 31,5.67157288 31,6.5 C31,7.32842712 31.6715729,8 32.5,8 C33.3284271,8 34,7.32842712 34,6.5 C34,5.67157288 33.3284271,5 32.5,5 Z M6.5,5 C5.67157288,5 5,5.67157288 5,6.5 C5,7.32842712 5.67157288,8 6.5,8 C7.32842712,8 8,7.32842712 8,6.5 C8,5.67157288 7.32842712,5 6.5,5 Z M20.06,3 C19.2315729,3 18.56,3.67157288 18.56,4.5 C18.56,5.32842712 19.2315729,6 20.06,6 C20.8884271,6 21.56,5.32842712 21.56,4.5 C21.56,3.67157288 20.8884271,3 20.06,3 Z" id="形状结合" fill="url(#linearGradient-1)"></path>
                        <polygon id="矩形备份-2" fill="url(#linearGradient-2)" points="9 20 31 20 39 30 1 30"></polygon>
                    </g>
                </g>
            </g>
        </g>
    </g>
</svg>