<?xml version="1.0" encoding="UTF-8"?>
<svg width="36px" height="39px" viewBox="0 0 36 39" version="1.1" xmlns="http://www.w3.org/2000/svg" xmlns:xlink="http://www.w3.org/1999/xlink">
    <!-- Generator: Sketch 60 (88103) - https://sketch.com -->
    <title>编组 6</title>
    <desc>Created with Sketch.</desc>
    <defs>
        <linearGradient x1="50%" y1="0%" x2="50%" y2="100%" id="linearGradient-1">
            <stop stop-color="#568AE4" offset="0.155722128%"></stop>
            <stop stop-color="#568AE4" stop-opacity="0" offset="100%"></stop>
        </linearGradient>
        <linearGradient x1="12.3680237%" y1="85.722622%" x2="87.5823782%" y2="12.1573654%" id="linearGradient-2">
            <stop stop-color="#52A3FF" offset="0%"></stop>
            <stop stop-color="#4A2AFF" offset="99.7519003%"></stop>
        </linearGradient>
    </defs>
    <g id="页面-1" stroke="none" stroke-width="1" fill="none" fill-rule="evenodd">
        <g id="首页" transform="translate(-662.000000, -1279.000000)">
            <g id="Panel-1" transform="translate(560.000000, 800.000000)">
                <g id="编组-30" transform="translate(100.000000, 478.000000)">
                    <g id="编组-6">
                        <rect id="矩形" x="0" y="0" width="40" height="40"></rect>
                        <path d="M20,6 C29.3888407,6 37,8.6862915 37,12 C37,15.3137085 29.3888407,18 20,18 C10.6111593,18 3,15.3137085 3,12 C3,8.6862915 10.6111593,6 20,6 Z M26.5,8 C24.5670034,8 23,9.56700338 23,11.5 C23,13.4329966 24.5670034,15 26.5,15 C28.4329966,15 30,13.4329966 30,11.5 C30,9.56700338 28.4329966,8 26.5,8 Z M13.5,8 C11.5670034,8 10,9.56700338 10,11.5 C10,13.4329966 11.5670034,15 13.5,15 C15.4329966,15 17,13.4329966 17,11.5 C17,9.56700338 15.4329966,8 13.5,8 Z" id="形状结合" fill="url(#linearGradient-1)"></path>
                        <path d="M19.5,1 C21.4329966,1 23,2.56700338 23,4.5 C23,4.69998945 22.9832266,4.89606126 22.9510098,5.08688535 C31.3437893,5.5827609 37.797871,8.18854348 37.9953424,11.8278715 L38,12 L38,33 L37.9953424,33.1721285 C37.7752769,37.2278573 29.7849701,40 20,40 C10.2150299,40 2.22472305,37.2278573 2.00465762,33.1721285 L2,33 L2,12 C2,8.4161587 8.02596245,5.80100993 16.0622946,5.15486494 C16.0210962,4.94364061 16,4.72428394 16,4.5 C16,2.56700338 17.5670034,1 19.5,1 Z M36.0012286,29.3313639 C33.0061553,31.5988164 26.9566353,33 20,33 C13.044139,33 6.99519125,31.5991283 3.99977152,29.332121 L4,33 L4.00505366,33.1144 C4.22025407,35.5551952 11.2813343,38 20,38 C28.7186657,38 35.7797459,35.5551952 35.9949463,33.1144 L36,33 L36.0012286,29.3313639 Z M36.0012286,22.3313639 C33.0061553,24.5988164 26.9566353,26 20,26 C13.044139,26 6.99519125,24.5991283 3.99977152,22.332121 L4,26 C4,28.4781982 11.1451051,31 20,31 C28.7186657,31 35.7797459,28.5551952 35.9949463,26.1144 L36,26 L36.0012286,22.3313639 Z M36.0012286,15.3313639 C33.0061553,17.5988164 26.9566353,19 20,19 C13.044139,19 6.99519125,17.5991283 3.99977152,15.332121 L4,19 C4,21.4781982 11.1451051,24 20,24 C28.7186657,24 35.7797459,21.5551952 35.9949463,19.1144 L36,19 L36.0012286,15.3313639 Z M21.9112918,7.0353053 L21.8450215,7.09828268 C21.224425,7.65874149 20.4020651,8 19.5,8 C18.5884447,8 17.7582806,7.6515233 17.1354587,7.08052113 C9.66557539,7.50190778 4,9.54419357 4,12 C4,14.7614237 11.163444,17 20,17 C28.836556,17 36,14.7614237 36,12 L35.9986836,11.9416728 L35.996,11.9059913 L35.9949335,11.8729272 C35.7952281,9.37113779 29.7150876,7.32559928 21.9112918,7.0353053 Z M26.5,8 C28.4329966,8 30,9.56700338 30,11.5 C30,13.4329966 28.4329966,15 26.5,15 C24.5670034,15 23,13.4329966 23,11.5 C23,9.56700338 24.5670034,8 26.5,8 Z M13.5,8 C15.4329966,8 17,9.56700338 17,11.5 C17,13.4329966 15.4329966,15 13.5,15 C11.5670034,15 10,13.4329966 10,11.5 C10,9.56700338 11.5670034,8 13.5,8 Z M26.5,10 C25.6715729,10 25,10.6715729 25,11.5 C25,12.3284271 25.6715729,13 26.5,13 C27.3284271,13 28,12.3284271 28,11.5 C28,10.6715729 27.3284271,10 26.5,10 Z M13.5,10 C12.6715729,10 12,10.6715729 12,11.5 C12,12.3284271 12.6715729,13 13.5,13 C14.3284271,13 15,12.3284271 15,11.5 C15,10.6715729 14.3284271,10 13.5,10 Z M19.5,3 C18.6715729,3 18,3.67157288 18,4.5 C18,5.32842712 18.6715729,6 19.5,6 C20.3284271,6 21,5.32842712 21,4.5 C21,3.67157288 20.3284271,3 19.5,3 Z" id="形状结合" fill="url(#linearGradient-2)"></path>
                    </g>
                </g>
            </g>
        </g>
    </g>
</svg>