<?xml version="1.0" encoding="UTF-8"?>
<svg width="41px" height="41px" viewBox="0 0 41 41" version="1.1" xmlns="http://www.w3.org/2000/svg" xmlns:xlink="http://www.w3.org/1999/xlink">
    <!-- Generator: Sketch 60 (88103) - https://sketch.com -->
    <title>编组 24</title>
    <desc>Created with Sketch.</desc>
    <defs>
        <linearGradient x1="50%" y1="0%" x2="50%" y2="100%" id="linearGradient-1">
            <stop stop-color="#568AE4" offset="0.155722128%"></stop>
            <stop stop-color="#568AE4" stop-opacity="0" offset="100%"></stop>
        </linearGradient>
        <linearGradient x1="5.83469443%" y1="85.722622%" x2="94.1070966%" y2="12.1573654%" id="linearGradient-2">
            <stop stop-color="#52A3FF" offset="0%"></stop>
            <stop stop-color="#4A2AFF" offset="99.7519003%"></stop>
        </linearGradient>
    </defs>
    <g id="页面-1" stroke="none" stroke-width="1" fill="none" fill-rule="evenodd">
        <g id="首页" transform="translate(-1380.000000, -1278.000000)">
            <g id="Panel-1" transform="translate(560.000000, 800.000000)">
                <g id="编组-31" transform="translate(820.000000, 478.000000)">
                    <g id="编组-24">
                        <rect id="矩形" x="0" y="0" width="40" height="40"></rect>
                        <polygon id="三角形" fill="url(#linearGradient-1)" points="20 19 30 36 10 36"></polygon>
                        <path d="M20.0434783,2.72670775e-13 C22.2766296,2.72670775e-13 24.0869565,1.81032688 24.0869565,4.04347826 C24.0869565,5.23527128 23.5713453,6.30663685 22.7510254,7.04667245 L36.0093408,32.0001411 C36.0207088,32.0000471 36.032088,32 36.0434783,32 C38.2766296,32 40.0869565,33.8103269 40.0869565,36.0434783 C40.0869565,38.2766296 38.2766296,40.0869565 36.0434783,40.0869565 C34.1401352,40.0869565 32.5439474,38.7718685 32.1139887,37.0007663 L7.97296787,37.0007663 C7.54300911,38.7718685 5.94682132,40.0869565 4.04347826,40.0869565 C1.81032688,40.0869565 -1.81188398e-13,38.2766296 -1.81188398e-13,36.0434783 C-1.81188398e-13,33.8277472 1.78219312,32.0282697 3.99129514,32.0003298 L17.27814,6.99351671 C16.4914681,6.25580192 16,5.20703435 16,4.04347826 C16,1.81032688 17.8103269,2.72670775e-13 20.0434783,2.72670775e-13 Z M36.0434783,34 C34.9148964,34 34,34.9148964 34,36.0434783 C34,37.1720601 34.9148964,38.0869565 36.0434783,38.0869565 C37.1720601,38.0869565 38.0869565,37.1720601 38.0869565,36.0434783 C38.0869565,34.9148964 37.1720601,34 36.0434783,34 Z M4.04347826,34 C2.91489638,34 2,34.9148964 2,36.0434783 C2,37.1720601 2.91489638,38.0869565 4.04347826,38.0869565 C5.17206014,38.0869565 6.08695652,37.1720601 6.08695652,36.0434783 C6.08695652,34.9148964 5.17206014,34 4.04347826,34 Z M19.0301555,7.95893704 L5.99301261,32.5001609 C6.94593756,33.0255783 7.66421174,33.9242298 7.9507797,34.9990599 L9.428,34.999 L18.0500716,20.3433431 C17.4488577,19.821789 17.054191,19.0684116 17.0051665,18.2223057 L17,18.0434783 C17,16.3626116 18.3626116,15 20.0434783,15 C21.7243449,15 23.0869565,16.3626116 23.0869565,18.0434783 C23.0869565,18.9888476 22.6559254,19.8335442 21.9796667,20.3917647 L30.572,34.999 L32.1361768,34.9990599 C32.4161272,33.9490503 33.1080757,33.0671764 34.0283056,32.5371551 L20.9798658,7.97798254 C20.6793271,8.04924109 20.3658071,8.08695652 20.0434783,8.08695652 C19.6935419,8.08695652 19.353988,8.04250375 19.0301555,7.95893704 Z M19.9342751,21.0850339 L11.7484166,35 L28.2515834,35 L20.066,21.085 L20.0434783,21.0869565 C20.0069231,21.0869565 19.9705185,21.0863121 19.9342751,21.0850339 Z M20.0434783,2 C18.9148964,2 18,2.91489638 18,4.04347826 C18,5.17206014 18.9148964,6.08695652 20.0434783,6.08695652 C21.1720601,6.08695652 22.0869565,5.17206014 22.0869565,4.04347826 C22.0869565,2.91489638 21.1720601,2 20.0434783,2 Z" id="形状结合" fill="url(#linearGradient-2)"></path>
                    </g>
                </g>
            </g>
        </g>
    </g>
</svg>