<?xml version="1.0" encoding="UTF-8"?>
<svg width="16px" height="16px" viewBox="0 0 16 16" version="1.1" xmlns="http://www.w3.org/2000/svg" xmlns:xlink="http://www.w3.org/1999/xlink">
    <!-- Generator: Sketch 60 (88103) - https://sketch.com -->
    <title>地球</title>
    <desc>Created with Sketch.</desc>
    <g id="页面-1" stroke="none" stroke-width="1" fill="none" fill-rule="evenodd">
        <g id="首页" transform="translate(-1304.000000, -21.000000)" fill-rule="nonzero">
            <g id="Header">
                <g id="编组" transform="translate(1304.000000, 20.000000)">
                    <g id="地球" transform="translate(0.000000, 1.000000)">
                        <rect id="矩形" fill="#000000" opacity="0" x="0" y="0" width="16" height="16"></rect>
                        <path d="M15.9830525,7.98553072 C15.9830525,3.57524569 12.4051688,0 7.99160617,0 C3.57796364,0 0,3.57524566 0,7.98553072 C0,12.0595553 3.05298033,15.4207531 6.99745381,15.9098432 C7.21981548,15.9567042 7.49065289,15.9840117 7.81322759,15.9840117 C7.90378386,15.9840117 7.99111055,15.9792473 8.07544744,15.9706138 C12.4503829,15.9256554 15.9830525,12.3679966 15.9830525,7.98553072 Z M14.8403552,8.0985182 C14.8173644,7.70008025 14.7647318,7.31006798 14.6845837,6.9310395 C14.6916984,6.79570073 14.693633,6.66747666 14.6900037,6.54826981 C14.7891136,7.01171516 14.8413789,7.4925235 14.8413789,7.98553072 C14.8413944,8.02327848 14.8409628,8.06091433 14.8403552,8.0985182 Z M1.14167402,7.98553072 C1.14167402,7.50150877 1.19206833,7.02927002 1.2876928,6.57364283 C1.58350352,6.89001417 2.280726,6.88254775 2.4507588,6.40984534 C2.75499522,6.59116572 3.16384139,6.62418103 3.16384139,6.98659792 C3.16384139,8.18269522 3.20643353,9.46501603 4.29320463,9.48482522 C4.32380573,9.48522492 4.89927928,9.70291809 5.17315441,10.4132028 C5.26785158,10.6586991 5.64241939,10.4132028 6.05318413,10.4132028 C6.25824675,10.4132028 6.05318413,10.7586724 6.05318413,11.5057296 C6.05318413,12.2498929 7.65756802,13.3957238 7.65756802,13.3957238 C7.65013358,13.8883154 7.67035845,14.2866254 7.71135178,14.6048354 C7.34920667,14.5981684 7.04401095,14.6461645 6.80423831,14.7277834 C3.58709281,14.1659637 1.14167402,11.3612456 1.14167402,7.98553072 Z M9.67792878,14.6212551 C9.64241934,14.4474012 9.48706355,14.3521924 9.20361158,14.4266966 C9.42977841,13.4635611 9.53972816,12.9240446 10.011871,12.5143991 C10.694992,11.922234 10.0932181,11.2637186 9.57338298,11.3413245 C9.16365747,11.4031823 9.42258378,10.834024 9.05688933,10.8025436 C8.69119488,10.7719425 8.21361611,10.0445506 7.6873058,9.79425777 C7.4083145,9.66176487 7.13413558,9.30670247 6.70386542,9.29079436 C6.32250269,9.27600542 5.76517558,9.61325714 5.76517558,9.35329161 C5.76517558,8.51593397 5.680391,7.91841292 5.66296403,7.67979142 C5.64889456,7.48807881 5.53764977,7.61521572 6.05318414,7.62760645 C6.33375827,7.63512083 6.19670878,7.064044 6.47442105,7.04174069 C6.74717702,7.02015683 7.39712286,7.29706969 7.562711,7.18670425 C7.71654794,7.08393312 8.69351316,9.75118597 8.69351316,7.62759045 C8.69351316,7.37561894 8.56301877,6.93753064 8.69351316,6.69889312 C9.20960711,5.7558865 9.6927657,4.98734139 9.64937416,4.87491348 C9.62475258,4.81161683 9.12136911,4.75935192 8.71859839,4.89449883 C8.58266806,4.93988887 8.76183005,5.15278562 8.56660008,5.19825561 C7.83513123,5.3671213 7.18886264,5.00102712 7.41517338,4.65691653 C7.64692002,4.30425233 8.48659594,4.50307959 8.56020488,3.79559281 C8.6025572,3.39034395 8.63765095,2.92099902 8.66113738,2.57217195 C9.645585,2.7261208 9.53721805,1.29455164 8.07343298,1.14132225 C11.0347699,1.17596833 13.5441888,3.08844178 14.465036,5.74268037 C14.4184628,5.70020016 14.3642793,5.67437947 14.3017021,5.66808017 C13.8591372,4.56261906 12.7849167,5.36264464 13.1493162,6.3376913 C11.1968246,7.83858461 11.6966108,8.88538558 12.338099,9.48482519 C12.6756545,9.79993348 12.9974778,10.273835 13.207017,10.6141884 C12.9789476,11.279211 14.0473484,11.0129142 14.5742663,9.88435036 C13.9040316,12.2087717 12.0343102,14.025157 9.67792878,14.6212551 Z" id="形状" fill="#B0B8DB"></path>
                    </g>
                </g>
            </g>
        </g>
    </g>
</svg>